<svg width="21" height="21" viewBox="0 0 21 21" fill="none" xmlns="http://www.w3.org/2000/svg">
<path d="M9.15593 1.01863C9.57965 -0.339543 11.42 -0.339543 11.8423 1.01863L13.3536 5.87324C13.4459 6.16889 13.6254 6.42651 13.8664 6.60925C14.1073 6.792 14.3975 6.89053 14.6953 6.89076H19.585C20.9536 6.89076 21.5214 8.71935 20.4155 9.55991L16.4608 12.5594C16.2193 12.7423 16.0395 13.0003 15.9472 13.2965C15.8548 13.5927 15.8547 13.9118 15.9467 14.2081L17.458 19.0627C17.8817 20.4209 16.3916 21.5519 15.2829 20.7114L11.3282 17.7119C11.087 17.529 10.7965 17.4306 10.4984 17.4306C10.2003 17.4306 9.90986 17.529 9.66863 17.7119L5.71393 20.7114C4.60661 21.5519 3.11795 20.4209 3.54026 19.0627L5.05152 14.2081C5.14357 13.9118 5.1434 13.5927 5.05105 13.2965C4.95869 13.0003 4.77888 12.7423 4.53741 12.5594L0.58412 9.56139C-0.521783 8.72083 0.0474111 6.89224 1.41461 6.89224H6.3029C6.60098 6.89232 6.89144 6.79393 7.13271 6.61116C7.37398 6.42839 7.55368 6.17061 7.64608 5.87471L9.15734 1.0201L9.15593 1.01863Z" fill="#CC0000"/>
</svg>
